# xmcd CD database file generated by Grip 3.1.4
# 
# Track frame offsets:
#       150
#       18022
#       31470
#       46625
#       62810
#       77995
#       98672
#       112805
#       126637
#       137642
#       151065
#       165567
# 
# Disc length: 2430 seconds
# 
# Revision: 0
# Processed by: cddbd v1.5.1PL0 Copyright (c) Steve Scherf et al.
# Submitted via: Grip 3.1.4
# 
DISCID=8c097c0c
DTITLE=AJ. Croce - Transit
DYEAR=1999
DGENRE=Blues
TTITLE0=Maybe
TTITLE1=It's Only Me (Oh Ya-Ya)
TTITLE2=Turn Out The Light
TTITLE3=Summer Can't Come Too Soon
TTITLE4=The Bargain
TTITLE5=Find Out Now
TTITLE6=Everyman
TTITLE7=What I Wouldn't Do
TTITLE8=Change
TTITLE9=Five
TTITLE10=She Was Always Right
TTITLE11=Don't Leave Me Now
EXTD=
EXTT0=
EXTT1=
EXTT2=
EXTT3=
EXTT4=
EXTT5=
EXTT6=
EXTT7=
EXTT8=
EXTT9=
EXTT10=
EXTT11=
PLAYORDER=
